<?xml version="1.0" encoding="utf-8"?>
<svg viewBox="0 0 500 500" xmlns="http://www.w3.org/2000/svg">
  <ellipse style="fill: rgb(240, 219, 79);" cx="250" cy="250" rx="250" ry="250"/>
  <path fill-rule="evenodd" d="M 216.667 137.5 C 216.667 130.597 222.263 125 229.167 125 L 270.832 125 C 280.457 125 286.469 135.418 281.658 143.751 C 279.426 147.619 275.299 150 270.832 150 L 229.167 150 C 222.263 150 216.667 144.403 216.667 137.5 Z M 300 137.5 C 300 130.597 305.597 125 312.5 125 L 337.5 125 C 344.403 125 350 130.597 350 137.5 L 350 162.5 C 350 172.124 339.582 178.137 331.249 173.326 C 327.381 171.093 325 166.966 325 162.5 L 325 150 L 312.5 150 C 305.597 150 300 144.403 300 137.5 Z M 199.867 136.033 C 200.837 142.863 196.093 149.189 189.267 150.168 C 182 151.218 176.218 157 175.167 164.268 C 173.807 173.793 162.643 178.274 155.072 172.333 C 151.561 169.576 149.786 165.154 150.418 160.733 C 153.053 142.431 167.431 128.053 185.732 125.418 C 192.568 124.446 198.896 129.2 199.867 136.033 Z M 162.5 191.668 C 169.403 191.668 175 197.264 175 204.168 L 175 229.168 C 175 238.79 164.582 244.803 156.249 239.993 C 152.381 237.76 150 233.632 150 229.168 L 150 204.168 C 150 197.264 155.597 191.668 162.5 191.668 Z M 337.5 191.668 C 344.403 191.668 350 197.264 350 204.168 L 350 229.168 C 350 238.79 339.582 244.803 331.249 239.993 C 327.381 237.76 325 233.632 325 229.168 L 325 204.168 C 325 197.264 330.597 191.668 337.5 191.668 Z M 162.5 258.333 C 169.403 258.333 175 263.931 175 270.833 L 175 275.3 C 176.379 275.1 177.771 274.999 179.167 275 L 187.5 275 C 197.122 275 203.136 285.417 198.326 293.75 C 196.092 297.619 191.967 300 187.5 300 L 179.167 300 C 176.864 300 175 301.866 175 304.168 L 175 316.668 C 175 321.333 176.9 325.533 180 328.568 C 186.876 335.303 183.882 346.958 174.61 349.543 C 170.308 350.746 165.692 349.56 162.5 346.433 C 154.493 338.6 149.987 327.868 150 316.668 L 150 270.833 C 150 263.931 155.597 258.333 162.5 258.333 Z M 337.5 258.333 C 344.403 258.333 350 263.931 350 270.833 L 350 345.833 C 350 352.737 344.403 358.333 337.5 358.333 L 295.832 358.333 C 286.21 358.333 280.197 347.917 285.007 339.582 C 287.24 335.717 291.368 333.333 295.832 333.333 L 325 333.333 L 325 300 L 312.5 300 C 302.876 300 296.863 289.582 301.674 281.25 C 303.907 277.382 308.033 275 312.5 275 L 325 275 L 325 270.833 C 325 263.931 330.597 258.333 337.5 258.333 Z M 216.667 287.5 C 216.667 280.597 222.263 275 229.167 275 L 270.832 275 C 280.457 275 286.469 285.417 281.658 293.75 C 279.426 297.619 275.299 300 270.832 300 L 229.167 300 C 222.263 300 216.667 294.403 216.667 287.5 Z M 200 329.168 L 200 383.333 C 200 386.54 203.471 388.546 206.249 386.942 C 206.393 386.86 206.532 386.768 206.667 386.668 L 230.832 368.55 C 232.313 367.439 234.351 367.439 235.832 368.55 L 260 386.668 C 262.567 388.592 266.253 387.017 266.636 383.832 C 266.657 383.666 266.667 383.5 266.667 383.333 L 266.667 329.168 C 266.667 326.866 264.8 325 262.5 325 L 204.167 325 C 201.864 325 200 326.866 200 329.168 Z" style="fill: rgb(50, 51, 48);"/>
</svg>