<?xml version="1.0" encoding="utf-8"?>
<svg viewBox="0 0 500 500" xmlns="http://www.w3.org/2000/svg" xmlns:xlink="http://www.w3.org/1999/xlink">
  <defs>
    <linearGradient id="gradient-2-0" gradientUnits="userSpaceOnUse" x1="250" y1="0" x2="250" y2="500" spreadMethod="reflect" gradientTransform="matrix(0.858257, -0.51322, 0.598255, 1.000461, -114.030174, 128.48587)" xlink:href="#gradient-2"/>
    <linearGradient id="gradient-2">
      <stop offset="0" style="stop-color: rgb(215, 215, 215);"/>
      <stop offset="0.45" style="stop-color: rgb(255, 255, 255);"/>
      <stop offset="0.55" style="stop-color: rgb(255, 255, 255);"/>
      <stop offset="1" style="stop-color: rgb(216, 216, 217);"/>
    </linearGradient>
  </defs>
  <rect style="fill: url(#gradient-2-0); paint-order: fill;" width="500" height="500" rx="100" ry="100"/>
  <path d="M 240.6500048828125 216.43799743652343 Q 225.8900048828125 216.43799743652343 211.1300048828125 213.19799743652345 L 222.6500048828125 169.99799743652343 Q 234.5300048828125 173.95799743652344 245.6900048828125 173.95799743652344 Q 267.6500048828125 173.95799743652344 267.6500048828125 137.59799743652343 L 262.6100048828125 -28.36200256347655 L 313.7300048828125 -37.36200256347655 L 308.6900048828125 124.99799743652343 Q 308.6900048828125 164.23799743652344 289.6100048828125 190.33799743652344 Q 270.5300048828125 216.43799743652343 240.6500048828125 216.43799743652343 Z M 370.9681298828125 141.19799743652345 Q 401.5681298828125 171.79799743652345 432.1681298828125 171.79799743652345 Q 448.0081298828125 171.79799743652345 457.5481298828125 164.41799743652342 Q 467.0881298828125 157.03799743652343 467.0881298828125 145.33799743652344 Q 467.0881298828125 133.63799743652345 455.5681298828125 125.53799743652344 Q 444.0481298828125 117.43799743652345 427.6681298828125 111.31799743652344 Q 411.2881298828125 105.19799743652344 395.0881298828125 97.45799743652344 Q 378.8881298828125 89.71799743652345 367.3681298828125 75.31799743652346 Q 355.8481298828125 60.91799743652345 355.8481298828125 40.39799743652344 Q 355.8481298828125 7.997997436523434 382.8481298828125 -15.58200256347655 Q 409.8481298828125 -39.16200256347656 446.9281298828125 -39.16200256347656 Q 463.8481298828125 -39.16200256347656 479.6881298828125 -35.56200256347654 Q 495.5281298828125 -31.962002563476545 510.2881298828125 -25.122002563476542 L 485.8081298828125 27.437997436523432 Q 475.7281298828125 19.517997436523444 458.2681298828125 12.857997436523448 Q 440.8081298828125 6.197997436523451 427.6681298828125 6.197997436523451 Q 414.5281298828125 6.197997436523451 406.4281298828125 12.497997436523434 Q 398.3281298828125 18.797997436523445 398.3281298828125 29.237997436523443 Q 398.3281298828125 39.67799743652344 409.8481298828125 47.777997436523435 Q 421.36812988281247 55.87799743652343 437.74812988281246 61.997997436523434 Q 454.1281298828125 68.11799743652344 470.50812988281245 75.49799743652343 Q 486.8881298828125 82.87799743652343 498.4081298828125 97.27799743652344 Q 509.9281298828125 111.67799743652344 509.9281298828125 132.19799743652345 Q 509.9281298828125 166.03799743652343 482.9281298828125 191.41799743652345 Q 455.9281298828125 216.79799743652345 419.9281298828125 216.79799743652345 Q 392.9281298828125 216.79799743652345 372.0481298828125 203.83799743652344 Q 353.6881298828125 192.67799743652344 346.1281298828125 184.03799743652343 L 342.8881298828125 180.07799743652345 Z" transform="matrix(1, 0, 0, 1, -111.73580932617188, 154.4834442138672)" style="fill: rgb(51, 51, 51); fill-opacity: 0.8; white-space: pre;"/>
  <path transform="matrix(1, 0, 0, 1, -111.73580932617188, 154.4834442138672)" style="fill: rgb(51, 51, 51); fill-opacity: 0.8; white-space: pre;"/>
</svg>